<?xml version="1.0" encoding="utf-8"?>
<!-- Generator: Adobe Illustrator 21.1.0, SVG Export Plug-In . SVG Version: 6.00 Build 0)  -->
<svg version="1.1" id="Ebene_1" xmlns="http://www.w3.org/2000/svg" xmlns:xlink="http://www.w3.org/1999/xlink" x="0px" y="0px"
	 viewBox="0 0 223.9 112" enable-background="new 0 0 223.9 112" xml:space="preserve">
<g>
	<path fill="#F34F29" d="M87.9,59.6v-8.2h18.8L58.9,3.6c-1.5-1.5-4-1.5-5.5,0L3.9,53.1c-1.5,1.5-1.5,4,0,5.5L53.4,108
		c1.5,1.5,4,1.5,5.5,0l48.4-48.4H87.9z"/>
	<path fill="#F34F29" d="M108.3,53.1l-0.6-0.6v6.7l0.6-0.6C109.9,57.1,109.9,54.6,108.3,53.1z"/>
</g>
<rect x="78.4" y="27.3" transform="matrix(0.7071 0.7071 -0.7071 0.7071 45.5834 -48.2831)" fill="#FBCABF" width="5.4" height="7.2"/>
<rect x="66.9" y="87.6" transform="matrix(-0.7071 0.7071 -0.7071 -0.7071 183.6714 107.2026)" fill="#FBCABF" width="5.4" height="8"/>
<path fill="#FDE5DF" d="M48,60.9l7.3-11.1c5.7,6.8,11.6,13.7,17.5,20.8L48,60.9z"/>
<path fill="#FBCABF" d="M58.8,3.5c-1-1-2.2-1.1-2.6-1.1l0,0c-1.4,0-2.3,0.7-2.3,0.7l0,0c-0.3,0.2-0.4,0.4-0.4,0.4v10.9h5.4L58.8,3.5
	z"/>
<path fill="#F34F29" d="M211,51.5l-22,47.4L181,81l13.4-29.4h-10.2l-8.3,18.2l-8.2-18.2h-10.8l13.6,29.9l-7.8,16.9L141,51.4h-0.8
	h-2.6h-18.4V29.7c0-4.2,1.3-7.5,3.8-9.8c2.5-2.3,5.6-3.4,9.3-3.4c2.9,0,6,0.7,9.2,2.1l2.6-9.1c-4.2-2-8.3-3-12.1-3
	c-4.2,0-8.3,1-12,2.9c-3.7,1.9-6.7,4.7-8.9,8.4c-2.3,3.7-3.4,8.3-3.4,13.7v8.2v11.8v8.2v19.7v29.4h11.4V59.6h14l23.4,49.1h11.6
	l7.6-16.6l7.7,16.6h11.5l26.3-57.2H211z"/>
</svg>
